<svg xmlns="http://www.w3.org/2000/svg" viewBox="13 1 38 58" role="img" aria-label="MediaBox">
  <title>MediaBox</title>
  <!-- Outer flame: outline only, so the filled disc below stays the focus and
       the arrow is still readable when this is a 16px favicon. -->
  <path
    d="M30 3c-3 11-11 17-13.5 26-2.6 9.4 2.4 19.6 11.5 23.5-5-6.5-5-14 -1-20.5
       -.5 4.5 1 8 4 10.5 6-3.5 8.5-10 6-16.5 5 4 7.5 10.5 6 16.5
       6-4.5 9-12.5 6.5-20C46.5 15.5 38 10 34 3c1.5 6 .5 11-3 15 1.5-5 1-10-1-15Z"
    fill="none" stroke="#d97f0e" stroke-width="1.5" stroke-linejoin="round"
  />
  <!-- inner tongues, filled, echoing the reference mark -->
  <path d="M31 17c-3 5-5 9-3 12.5 1.7 3 5.7 3 7.5 0 2-3.5-.5-8-4.5-12.5Z" fill="#d97f0e"/>
  <path d="M45 22c-3 5.5-2.5 10 1.5 12 3-2 4-8-1.5-12Z" fill="#d97f0e"/>
  <circle cx="32" cy="42" r="15" fill="#d97f0e"/>
  <path d="M32 33v15M24 41l8 8 8-8" fill="none" stroke="#fff"
        stroke-width="4.4" stroke-linecap="round" stroke-linejoin="round"/>
</svg>
